<svg data-v-423bf9ae="" xmlns="http://www.w3.org/2000/svg" viewBox="0 0 420 90" class="iconLeft"><!----><!----><!----><g data-v-423bf9ae="" id="8697f57f-9987-4fea-8993-c8487bc32005" fill="#2E2B3C" transform="matrix(4.225351810455322,0,0,4.225351810455322,106.57744598388672,1.2676070928573608)"><path d="M6.30 12.43L6.30 13.10Q6.11 13.23 5.88 13.35Q5.65 13.47 5.37 13.57Q5.09 13.67 4.78 13.72Q4.46 13.78 4.12 13.78L4.12 13.78Q3.40 13.78 2.79 13.52Q2.18 13.25 1.74 12.79Q1.30 12.32 1.05 11.67Q0.81 11.02 0.81 10.25L0.81 10.25Q0.81 9.38 1.11 8.64Q1.42 7.91 1.94 7.38Q2.47 6.86 3.16 6.56Q3.86 6.26 4.63 6.26L4.63 6.26Q4.85 6.26 5.09 6.29Q5.33 6.31 5.56 6.36Q5.79 6.41 5.98 6.47Q6.18 6.54 6.31 6.62L6.31 6.62L6.08 7.53L5.92 7.60Q5.78 7.51 5.60 7.42Q5.41 7.34 5.21 7.28Q5.01 7.23 4.80 7.19Q4.59 7.16 4.38 7.16L4.38 7.16Q3.90 7.16 3.44 7.35Q2.98 7.55 2.62 7.92Q2.26 8.29 2.05 8.83Q1.83 9.37 1.83 10.07L1.83 10.07Q1.83 10.76 2.05 11.28Q2.26 11.81 2.63 12.15Q2.99 12.50 3.47 12.68Q3.94 12.86 4.47 12.86L4.47 12.86Q4.84 12.86 5.33 12.76Q5.82 12.67 6.30 12.43L6.30 12.43ZM11.33 13.78L11.33 13.78Q10.53 13.78 9.91 13.48Q9.28 13.19 8.85 12.69Q8.42 12.19 8.18 11.53Q7.95 10.88 7.95 10.16L7.95 10.16Q7.95 9.34 8.24 8.63Q8.52 7.92 9.03 7.40Q9.54 6.87 10.22 6.57Q10.90 6.26 11.70 6.26L11.70 6.26Q12.50 6.26 13.12 6.56Q13.75 6.86 14.18 7.37Q14.61 7.88 14.83 8.53Q15.06 9.19 15.06 9.91L15.06 9.91Q15.06 10.72 14.77 11.43Q14.49 12.13 13.98 12.66Q13.48 13.18 12.80 13.48Q12.11 13.78 11.33 13.78ZM11.51 12.89L11.51 12.89Q12.09 12.89 12.55 12.65Q13.02 12.42 13.34 12.03Q13.67 11.64 13.85 11.13Q14.03 10.62 14.03 10.07L14.03 10.07Q14.03 9.53 13.86 9.01Q13.69 8.48 13.37 8.07Q13.04 7.66 12.57 7.41Q12.10 7.16 11.50 7.16L11.50 7.16Q10.93 7.16 10.47 7.39Q10.01 7.62 9.67 8.00Q9.34 8.39 9.16 8.91Q8.98 9.42 8.98 9.98L8.98 9.98Q8.98 10.51 9.15 11.03Q9.32 11.55 9.64 11.97Q9.97 12.38 10.44 12.63Q10.91 12.89 11.51 12.89ZM17.12 13.64L17.12 6.40L17.90 6.40L18.05 7.68Q18.29 7.44 18.59 7.18Q18.89 6.93 19.24 6.73Q19.58 6.52 19.98 6.39Q20.38 6.26 20.81 6.26L20.81 6.26Q21.30 6.26 21.71 6.44Q22.13 6.62 22.43 6.95Q22.73 7.27 22.90 7.74Q23.06 8.21 23.06 8.79L23.06 8.79L23.06 13.64L22.09 13.64L22.09 8.93Q22.09 8.50 21.97 8.18Q21.85 7.85 21.65 7.63Q21.44 7.41 21.14 7.30Q20.85 7.18 20.50 7.18L20.50 7.18Q19.89 7.18 19.30 7.52Q18.70 7.86 18.10 8.46L18.10 8.46L18.10 13.64L17.12 13.64ZM29.17 13.94L27.43 13.94Q27.22 14.03 26.98 14.17Q26.75 14.32 26.55 14.51Q26.35 14.70 26.22 14.92Q26.09 15.14 26.09 15.37L26.09 15.37Q26.09 15.61 26.24 15.83Q26.39 16.04 26.66 16.20Q26.94 16.37 27.34 16.46Q27.74 16.55 28.25 16.55L28.25 16.55Q28.81 16.55 29.29 16.43Q29.76 16.31 30.09 16.10Q30.43 15.89 30.61 15.61Q30.80 15.33 30.80 15.01L30.80 15.01Q30.80 14.74 30.66 14.53Q30.53 14.33 30.31 14.20Q30.08 14.07 29.79 14.00Q29.50 13.94 29.17 13.94L29.17 13.94ZM26.52 13.78L26.52 13.78Q26.33 13.73 26.16 13.62Q25.99 13.52 25.86 13.38Q25.74 13.24 25.66 13.07Q25.59 12.91 25.59 12.72L25.59 12.72Q25.59 12.50 25.69 12.30Q25.80 12.10 25.97 11.92Q26.15 11.73 26.37 11.57Q26.59 11.40 26.82 11.26L26.82 11.26Q26.17 10.91 25.79 10.33Q25.40 9.74 25.40 9.00L25.40 9.00Q25.40 8.35 25.69 7.84Q25.98 7.33 26.42 6.98Q26.87 6.63 27.40 6.45Q27.93 6.26 28.42 6.26L28.42 6.26Q28.62 6.26 28.83 6.29Q29.05 6.32 29.24 6.38Q29.44 6.43 29.62 6.51Q29.79 6.58 29.92 6.67L29.92 6.67Q30.04 6.60 30.21 6.55Q30.39 6.50 30.57 6.47Q30.75 6.43 30.92 6.42Q31.10 6.40 31.21 6.40L31.21 6.40L32.53 6.40L32.27 7.29L30.50 7.29Q30.63 7.40 30.74 7.57Q30.86 7.75 30.95 7.96Q31.04 8.18 31.10 8.42Q31.15 8.66 31.15 8.91L31.15 8.91Q31.15 9.48 30.88 9.97Q30.62 10.46 30.19 10.82Q29.77 11.18 29.24 11.39Q28.72 11.60 28.19 11.60L28.19 11.60Q28.03 11.60 27.86 11.58Q27.69 11.57 27.49 11.54L27.49 11.54Q27.34 11.62 27.19 11.72Q27.04 11.82 26.91 11.93Q26.78 12.04 26.70 12.16Q26.62 12.29 26.62 12.43L26.62 12.43Q26.62 12.54 26.67 12.65Q26.73 12.76 26.83 12.84Q26.93 12.93 27.07 12.99Q27.22 13.04 27.41 13.04L27.41 13.04L29.44 13.04Q29.96 13.04 30.39 13.18Q30.82 13.32 31.13 13.56Q31.43 13.80 31.60 14.13Q31.77 14.46 31.77 14.83L31.77 14.83Q31.77 15.29 31.50 15.76Q31.23 16.23 30.74 16.60Q30.26 16.98 29.57 17.21Q28.88 17.45 28.02 17.45L28.02 17.45Q27.38 17.45 26.84 17.31Q26.30 17.17 25.91 16.93Q25.52 16.69 25.30 16.36Q25.07 16.03 25.07 15.64L25.07 15.64Q25.07 15.31 25.23 15.02Q25.38 14.73 25.60 14.50Q25.83 14.26 26.08 14.08Q26.33 13.90 26.52 13.78ZM26.37 8.89L26.37 8.89Q26.37 9.28 26.52 9.61Q26.67 9.95 26.93 10.21Q27.19 10.46 27.54 10.61Q27.88 10.75 28.28 10.75L28.28 10.75Q28.65 10.75 28.99 10.62Q29.34 10.49 29.60 10.25Q29.87 10.01 30.02 9.68Q30.18 9.35 30.18 8.95L30.18 8.95Q30.18 8.56 30.03 8.22Q29.88 7.89 29.62 7.64Q29.37 7.40 29.02 7.25Q28.67 7.11 28.27 7.11L28.27 7.11Q27.90 7.11 27.56 7.24Q27.21 7.36 26.95 7.59Q26.69 7.83 26.53 8.16Q26.37 8.48 26.37 8.89ZM34.04 13.64L34.04 6.40L34.82 6.40L34.96 8.50Q35.21 8.01 35.47 7.60Q35.74 7.19 36.04 6.89Q36.35 6.60 36.70 6.43Q37.05 6.26 37.47 6.26L37.47 6.26Q37.66 6.26 37.81 6.30Q37.95 6.34 38.13 6.43L38.13 6.43L38.03 7.32Q37.94 7.29 37.79 7.27Q37.64 7.26 37.52 7.26L37.52 7.26Q37.19 7.26 36.88 7.38Q36.57 7.49 36.26 7.76Q35.95 8.03 35.64 8.46Q35.33 8.89 35.01 9.53L35.01 9.53L35.01 13.64L34.04 13.64ZM44.81 12.43L44.81 13.10Q44.58 13.25 44.28 13.38Q43.98 13.50 43.64 13.59Q43.30 13.69 42.95 13.73Q42.60 13.78 42.29 13.78L42.29 13.78Q41.64 13.78 41.03 13.55Q40.42 13.32 39.95 12.87Q39.47 12.41 39.18 11.72Q38.90 11.04 38.90 10.12L38.90 10.12Q38.90 9.22 39.18 8.50Q39.46 7.79 39.93 7.29Q40.39 6.79 41.00 6.53Q41.60 6.26 42.23 6.26L42.23 6.26Q42.81 6.26 43.32 6.47Q43.84 6.69 44.23 7.08Q44.62 7.47 44.85 8.04Q45.08 8.60 45.08 9.30L45.08 9.30Q45.08 9.45 45.06 9.68Q45.05 9.92 45.01 10.16L45.01 10.16L39.92 10.16Q39.92 10.75 40.12 11.24Q40.32 11.73 40.69 12.09Q41.06 12.46 41.59 12.66Q42.12 12.86 42.79 12.86L42.79 12.86Q42.96 12.86 43.21 12.84Q43.45 12.82 43.72 12.78Q44.00 12.73 44.28 12.65Q44.56 12.56 44.81 12.43L44.81 12.43ZM39.92 9.38L44.12 9.38Q44.12 8.83 43.95 8.41Q43.78 8.00 43.50 7.72Q43.22 7.44 42.85 7.30Q42.49 7.16 42.10 7.16L42.10 7.16Q41.63 7.16 41.23 7.35Q40.84 7.54 40.55 7.85Q40.26 8.17 40.10 8.57Q39.94 8.97 39.92 9.38L39.92 9.38ZM47.19 13.64L47.19 6.40L47.97 6.40L48.11 7.68Q48.36 7.43 48.67 7.17Q48.97 6.92 49.30 6.72Q49.64 6.51 50.02 6.39Q50.39 6.26 50.78 6.26L50.78 6.26Q51.44 6.26 51.96 6.63Q52.48 7.01 52.73 7.68L52.73 7.68Q52.98 7.43 53.28 7.18Q53.57 6.92 53.92 6.72Q54.26 6.51 54.65 6.39Q55.04 6.26 55.46 6.26L55.46 6.26Q55.94 6.26 56.35 6.44Q56.75 6.62 57.05 6.95Q57.35 7.27 57.51 7.74Q57.68 8.21 57.68 8.79L57.68 8.79L57.68 13.64L56.70 13.64L56.70 8.93Q56.70 8.50 56.59 8.18Q56.47 7.85 56.27 7.63Q56.06 7.41 55.77 7.30Q55.49 7.18 55.15 7.18L55.15 7.18Q54.58 7.18 54.02 7.49Q53.46 7.80 52.90 8.35L52.90 8.35Q52.91 8.46 52.92 8.57Q52.92 8.67 52.92 8.79L52.92 8.79L52.92 13.64L51.95 13.64L51.95 8.93Q51.95 8.50 51.83 8.18Q51.71 7.85 51.52 7.63Q51.32 7.41 51.05 7.30Q50.78 7.18 50.48 7.18L50.48 7.18Q49.93 7.18 49.35 7.52Q48.77 7.86 48.17 8.46L48.17 8.46L48.17 13.64L47.19 13.64ZM60.03 12.98L60.03 12.98Q60.03 12.82 60.09 12.67Q60.16 12.52 60.27 12.41Q60.38 12.30 60.52 12.24Q60.67 12.18 60.83 12.18L60.83 12.18Q61.00 12.18 61.14 12.24Q61.29 12.30 61.40 12.41Q61.51 12.52 61.57 12.67Q61.63 12.82 61.63 12.98L61.63 12.98Q61.63 13.15 61.57 13.29Q61.51 13.44 61.40 13.55Q61.29 13.66 61.14 13.72Q61.00 13.78 60.83 13.78L60.83 13.78Q60.67 13.78 60.52 13.72Q60.38 13.66 60.27 13.55Q60.16 13.44 60.09 13.29Q60.03 13.15 60.03 12.98ZM63.98 13.64L63.98 6.40L64.96 6.40L64.96 13.64L63.98 13.64ZM63.76 3.97L63.76 3.97Q63.76 3.82 63.81 3.69Q63.87 3.56 63.97 3.47Q64.07 3.37 64.20 3.31Q64.33 3.25 64.47 3.25L64.47 3.25Q64.62 3.25 64.75 3.31Q64.88 3.37 64.98 3.47Q65.07 3.56 65.13 3.69Q65.19 3.82 65.19 3.97L65.19 3.97Q65.19 4.12 65.13 4.25Q65.07 4.38 64.98 4.48Q64.88 4.57 64.75 4.63Q64.62 4.68 64.47 4.68L64.47 4.68Q64.33 4.68 64.20 4.63Q64.07 4.57 63.97 4.48Q63.87 4.38 63.81 4.25Q63.76 4.12 63.76 3.97ZM70.40 13.78L70.40 13.78Q69.61 13.78 68.98 13.48Q68.36 13.19 67.93 12.69Q67.49 12.19 67.26 11.53Q67.03 10.88 67.03 10.16L67.03 10.16Q67.03 9.34 67.31 8.63Q67.60 7.92 68.11 7.40Q68.61 6.87 69.30 6.57Q69.98 6.26 70.77 6.26L70.77 6.26Q71.57 6.26 72.20 6.56Q72.82 6.86 73.25 7.37Q73.68 7.88 73.91 8.53Q74.14 9.19 74.14 9.91L74.14 9.91Q74.14 10.72 73.85 11.43Q73.56 12.13 73.06 12.66Q72.56 13.18 71.87 13.48Q71.19 13.78 70.40 13.78ZM70.59 12.89L70.59 12.89Q71.16 12.89 71.63 12.65Q72.09 12.42 72.42 12.03Q72.75 11.64 72.93 11.13Q73.11 10.62 73.11 10.07L73.11 10.07Q73.11 9.53 72.94 9.01Q72.77 8.48 72.44 8.07Q72.12 7.66 71.65 7.41Q71.18 7.16 70.57 7.16L70.57 7.16Q70.01 7.16 69.55 7.39Q69.08 7.62 68.75 8.00Q68.41 8.39 68.23 8.91Q68.05 9.42 68.05 9.98L68.05 9.98Q68.05 10.51 68.22 11.03Q68.39 11.55 68.72 11.97Q69.04 12.38 69.51 12.63Q69.99 12.89 70.59 12.89Z"></path></g><defs data-v-423bf9ae=""><linearGradient data-v-423bf9ae="" gradientTransform="rotate(25)" id="76199472-d50c-41cf-ad16-a85bd68cfc4d" x1="0%" y1="0%" x2="100%" y2="0%"><stop data-v-423bf9ae="" offset="0%" style="stop-color: rgb(101, 102, 206); stop-opacity: 1;"></stop><stop data-v-423bf9ae="" offset="100%" style="stop-color: rgb(219, 193, 208); stop-opacity: 1;"></stop></linearGradient></defs><g data-v-423bf9ae="" id="5b1b80c7-3f7e-4a3b-9ae3-b08de926e274" transform="matrix(2.8125,0,0,2.8125,0,0)" stroke="none" fill="url(#76199472-d50c-41cf-ad16-a85bd68cfc4d)"><path d="M0 16.024L15.976 32 32 15.976 16.024 0 0 16.024zm15.989 7.323l-7.336-7.336 14.694-.022-7.358 7.358z"></path></g><!----></svg>